<svg height="512pt" viewBox="-63 0 512 512" width="512pt" xmlns="http://www.w3.org/2000/svg"><path d="m386.777344 357.007812v-52.292968c0-8.285156-3.222656-16.082032-9.09375-21.964844-5.867188-5.855469-13.664063-9.078125-21.949219-9.078125h-4.304687v-34.839844c0-4.183593-3.390626-7.574219-7.574219-7.574219-4.179688 0-7.574219 3.390626-7.574219 7.574219v34.839844h-13.632812c-3.777344 0-7.367188.824219-10.601563 2.292969v-72.476563c0-9.746093-7.929687-17.675781-17.675781-17.675781h-1.523438c-1.664062 0-3.019531-1.351562-3.019531-3.015625v-82.316406c0-6.960938 5.664063-12.621094 12.625-12.621094h15.390625c.214844 0 .429688-.015625.640625-.035156.457031.023437.917969.035156 1.378906.035156h.574219c8.886719 0 15.84375 7.632813 15.84375 17.378906v98.25c0 4.183594 3.394531 7.574219 7.574219 7.574219 4.183593 0 7.574219-3.390625 7.574219-7.574219v-98.25c0-18.242187-13.613282-32.527343-30.992188-32.527343h-.574219c-.449219 0-.882812-.019532-1.375-.066407-8.144531-.679687-14.519531-7.636719-14.519531-15.828125 0-10.613281-3.394531-20.695312-9.8125-29.160156-6.40625-8.445312-15.183594-14.453125-25.386719-17.375-35.453125-10.164062-73.769531-10.28125-75.382812-10.28125s-39.925781.117188-75.378907 10.28125c-10.203124 2.921875-18.980468 8.929688-25.390624 17.375-6.417969 8.464844-9.808594 18.546875-9.808594 29.160156 0 8.191406-6.378906 15.148438-14.574219 15.835938-.4375.039062-.871094.058594-1.320313.058594h-.574218c-17.378906 0-30.996094 14.289062-30.996094 32.527343v98.25c0 4.183594 3.390625 7.574219 7.574219 7.574219 4.183593 0 7.574219-3.390625 7.574219-7.574219v-98.25c0-9.746093 6.960937-17.378906 15.847656-17.378906h.574218c.460938 0 .925782-.011719 1.378907-.03125.210937.015625.425781.03125.640625.03125h15.390625c6.960937 0 12.621093 5.664063 12.621093 12.621094v82.316406c0 1.664063-1.351562 3.019531-3.015624 3.019531h-1.527344c-9.746094 0-17.671875 7.925782-17.671875 17.671875v72.480469c-3.238281-1.472656-6.824219-2.296875-10.605469-2.296875h-13.632812v-34.839844c0-4.183593-3.390626-7.574219-7.574219-7.574219-4.183594 0-7.574219 3.390626-7.574219 7.574219v34.839844h-4.300781c-17.117188 0-31.042969 13.925781-31.042969 31.042969v52.292968c0 17.113282 6.59375 33.820313 18.179688 46.335938v48.753906c0 4.300782-2.140626 8.296875-5.71875 10.679688-7.800782 5.203125-12.460938 13.90625-12.460938 23.285156v18.363281c0 4.183594 3.390625 7.574219 7.574219 7.574219h371.628906c4.183594 0 7.574219-3.390625 7.574219-7.574219v-18.363281c0-9.378906-4.660156-18.082031-12.460938-23.285156-3.582031-2.386719-5.71875-6.378906-5.71875-10.679688v-48.75c11.589844-12.523437 18.179688-29.226562 18.179688-46.339844zm-64.128906-68.1875h33.085937c4.246094 0 8.242187 1.652344 11.238281 4.644532 3.003906 3.007812 4.65625 7.003906 4.65625 11.25v52.292968c0 13.039063-4.925781 25.769532-13.605468 35.4375-1.777344.769532-3.207032 2.203126-3.964844 3.988282-3.460938 3.113281-7.3125 5.757812-11.480469 7.875-23.640625 11.96875-63.765625 26.636718-122.429687 30.144531v-44.492187c35.269531-2.289063 59.398437-8.796876 73.710937-14.023438 10.878906-3.96875 18.1875-14.441406 18.1875-26.0625v-50.453125c0-5.84375 4.757813-10.601563 10.601563-10.601563zm-149.960938 52.511719v-41.402343h41.402344v41.402343zm43.628906-56.550781h-45.855468l-33.921876-95.515625 15.890626-4.765625 33.867187 90.316406c1.109375 2.957032 3.933594 4.914063 7.09375 4.914063 3.15625 0 5.980469-1.957031 7.089844-4.914063l33.871093-90.316406 15.886719 4.765625zm-34.542968 71.699219h23.230468v105.53125h-23.230468zm-89.082032-282.480469c3.320313-4.953125 5.265625-10.878906 5.265625-17.183594 0-7.28125 2.328125-14.199218 6.730469-20.003906 4.414062-5.816406 10.460938-9.957031 17.492188-11.96875 33.355468-9.5625 70.835937-9.695312 71.207031-9.695312.375 0 37.777343.113281 71.210937 9.695312 7.03125 2.015625 13.078125 6.152344 17.492188 11.96875 4.402344 5.804688 6.730468 12.722656 6.730468 20.003906 0 6.304688 1.941407 12.234375 5.261719 17.1875-7.375 2.335938-13.425781 7.675782-16.714843 14.574219-25.335938-24.0625-80.753907-25.882813-83.777344-25.964844-.136719 0-.269532 0-.402344 0-3.027344.082031-58.441406 1.902344-83.78125 25.964844-3.289062-6.902344-9.339844-12.242187-16.714844-14.578125zm-2.8125 129.488281c0-1.394531 1.132813-2.527343 2.523438-2.527343h1.523437c9.757813 0 17.71875-7.734376 18.128907-17.390626.027343-.253906.039062-.515624.039062-.777343v-66.15625c0-34.78125 76.78125-38.683594 81.292969-38.875 4.542969.191406 81.292969 4.101562 81.292969 38.875v66.15625c0 .039062.007812.078125.007812.117187.003906.222656.011719.441406.03125.660156.410156 9.65625 8.375 17.390626 18.128906 17.390626h1.523438c1.394531 0 2.527344 1.132812 2.527344 2.523437v146.390625c0 5.28125-3.308594 10.035156-8.234376 11.832031-13.242187 4.835938-35.585937 10.84375-68.515624 13.070313v-18.296875h1.515624c4.183594 0 7.574219-3.390625 7.574219-7.574219v-55.246094l37.9375-106.824218c.691407-1.957032.554688-4.109376-.382812-5.960938-.9375-1.847656-2.59375-3.234375-4.578125-3.828125l-30.296875-9.089844c-3.816407-1.144531-7.867188.863281-9.265625 4.59375l-29.265625 78.035157-29.261719-78.035157c-1.398438-3.730469-5.445312-5.742187-9.269531-4.59375l-30.292969 9.089844c-1.988281.59375-3.644531 1.980469-4.582031 3.828125-.9375 1.851562-1.074219 4.003906-.378907 5.960938l37.9375 106.824218v55.246094c0 4.183594 3.390626 7.574219 7.574219 7.574219h1.515625v18.296875c-32.929687-2.226563-55.273437-8.234375-68.519531-13.070313-4.921875-1.796875-8.230469-6.550781-8.230469-11.832031zm-74.730468 101.226563c0-8.765625 7.128906-15.894532 15.894531-15.894532h33.082031c5.847656 0 10.605469 4.757813 10.605469 10.605469v50.453125c0 11.617188 7.308593 22.09375 18.183593 26.058594 14.316407 5.230469 38.441407 11.734375 73.710938 14.027344v44.492187c-58.664062-3.507812-98.785156-18.175781-122.421875-30.148437-4.171875-2.113282-8.023437-4.757813-11.484375-7.875-.761719-1.785156-2.1875-3.214844-3.96875-3.984375-8.675781-9.667969-13.601562-22.398438-13.601562-35.441407zm356.480468 181.347656v10.789062h-356.480468v-10.789062c0-4.300781 2.136718-8.292969 5.714843-10.679688 7.800781-5.203124 12.460938-13.90625 12.460938-23.285156v-36.503906c1.316406.785156 2.660156 1.53125 4.03125 2.226562 25.054687 12.691407 67.527343 28.246094 129.273437 31.8125v19.953126c0 4.183593 3.390625 7.574218 7.570313 7.574218h38.375c4.183593 0 7.574219-3.390625 7.574219-7.574218v-19.953126c61.746093-3.566406 104.21875-19.121093 129.277343-31.8125 1.371094-.695312 2.710938-1.441406 4.027344-2.226562v36.503906c0 9.378906 4.65625 18.082032 12.460937 23.285156 3.578126 2.386719 5.714844 6.378907 5.714844 10.679688zm0 0"/></svg>