<svg xmlns="http://www.w3.org/2000/svg" viewBox="0 0 330.86 370.05"><defs><style>.cls-1{fill:#fff;}</style></defs><title>logotypePV-header</title><g id="Слой_2" data-name="Слой 2"><g id="Слой_1-2" data-name="Слой 1"><path class="cls-1" d="M267.35,194.05l11.43,15.73c-.07-.61-.13-1.23-.2-1.84a15.53,15.53,0,0,1,3,7.44c.35,2.67-.28,5.41.72,8,1.09,2.77.4,6.29.23,9.26a47.56,47.56,0,0,1-1.13,9.44,74.51,74.51,0,0,1-3,8.53,26.65,26.65,0,0,1-3.7,7.29c-3.31,4.15-8.38,7-13.28,8.83-5.82,2.18-11.88,2.22-18,1.69-5.92-.5-12.66-1.47-18-4.32-4.65-2.5-8.08-7.1-10.77-11.53a55.78,55.78,0,0,1-6.28-15.36,80.24,80.24,0,0,1-2.62-18.88,3.31,3.31,0,0,0-.42-2,4.56,4.56,0,0,1-.65-1.93,4.26,4.26,0,0,1,1.49-3,24.83,24.83,0,0,0,2.65-2.87c1-1.47,1.84-3.11,2.81-4.63-1.72-.49-3.49-.84-5.17-1.43s-2.21-1.67-3.31-3.07c1.45-.93,2.12-1.56,3.91-1.7,2-.15,4.06-.19,6.09-.26.54,0,2.11,0,1.46-1.09-.21-.34-1.81-.59-2.23-.73a5.42,5.42,0,0,1-3-2.12c-.86-1.35-1.31-6.46,1.46-5.29,1.49.64,2.52,2,4.11,2.55a7.4,7.4,0,0,0,4.51.18,11.17,11.17,0,0,0,4.15-2.43,8.69,8.69,0,0,0,1.66-1.47c.39-.66.27-.19.16-.9a14.94,14.94,0,0,0-.61-1.65c-.42-1.33-.3-2.74-.83-4a7.1,7.1,0,0,0-2.67-3.1c-5.37-3.88-12-6.59-18.7-5.25s-12,5.94-15.71,11.41a59.39,59.39,0,0,0-4.94,9.7,25.69,25.69,0,0,0-2.42,10.43,21.09,21.09,0,0,0,3,10.08,52.72,52.72,0,0,1,3.77,9.63c.62,2,1.33,4.2-1.25,4.82-3.4.81-7.36.57-10.84.66a229.6,229.6,0,0,1-26.49-.9q-6.72-.6-13.39-1.49a5,5,0,0,1-3.9-2.29c-1-1.33-.7-3.16-2-4.35-1.91,7.71-4.1,15.2-8.5,21.91a6,6,0,0,0-1.07,2.28,9.72,9.72,0,0,1-.45,2.32c-.82,1.64-2.74,3.17-4,4.47a44.94,44.94,0,0,1-8.88,7.34,45.3,45.3,0,0,1-23,6c-8.12-.07-15.18-3.37-22.3-6.93-3.29-1.64-6.46-3.13-9-5.91s-3.78-5.91-5-9.24c-1.52-4-2.76-8.17-3.94-12.31a91.36,91.36,0,0,1-3.08-12.59c-2-14.57,3.16-30.1,12.59-41.28A39.23,39.23,0,0,1,67,164.63c6.85-2.75,13.84-2.84,21.1-2.47,0-5.51-1.61-11.09-2.19-16.61-.63-5.94-.93-11.9-1.08-17.87s-.16-11.71-.2-17.57c0-2.84-.24-5.67-.24-8.5,0-1.36.08-2.85,1.47-3.48,2-.9,5-.29,7.06-.17,3,.17,6,.44,8.93.55,6,.22,11.93.39,17.9.76,12,.73,23.81,1.31,35.78,1.25,6.65,0,13.29.26,19.92.8,3,.24,2.75,2.41,2.57,4.93-.23,3.16-.38,6.32-.52,9.49,1.85-.7,4.24-1.61,5.17-3.53s.17-3.93-.44-5.68c-.26-.74-1-2-.53-2.78s2.3-.63,3.18-1c2.42-1.12,3.44-4.14,6.48-2.47,1.5.81,2.83,1.93,4.32,2.78,1,.57,2.46,1,2.17,2.46a3.13,3.13,0,0,1-.82,1.31c-.08.09-.86.69-.91.86a7.6,7.6,0,0,0,.32,1.37,27.54,27.54,0,0,1,.48,5.8c-.05,3.77-.68,7.48-1.09,11.22-.13,1.23,0,2.88-.88,3.88s-2.1.52-3.36.64c-2.91.29-1.46,5.86-1.35,7.66.14,2.17.24,4.35.41,6.52a6.24,6.24,0,0,1,.06,2.58c-.33.88-1.34,1.56-1.94,2.22-1-1.47-1.63-1.91-1.67-3.82s0-3.68,0-5.52.06-3.68.1-5.52a5.64,5.64,0,0,0-.46-3.25c-.64-1-1.74-.78-2.54-1.45-1.16-1-1.09-2.65-1.15-4a97.79,97.79,0,0,0-.61-10.28,7.22,7.22,0,0,0-2.69,1.72c-.85,1.2.1,2,.42,3.11s-.38,2.26-.79,3.16c-.77,1.75-1.33,2.71-1.33,4.67,0,7.61.07,15.23.13,22.84q0,5.63.08,11.24c0,1.85-1,6.83,2,6.63s6.44-1.41,9.33-2.35a33.28,33.28,0,0,0,8.6-4.08c2-1.34,4.37-2.78,2.63-5.2-.81-1.14-1.63-1.88-1.85-3.33a19.88,19.88,0,0,0-1-4.56c-1.06-2.66-3-4.82-4.12-7.45-.67-1.6-.71-3.14.69-4.33,1.83-1.55,4.7-2.31,7-2.76a14.62,14.62,0,0,1,8.86.83c1.38.62,2.51,1.67,3.87,2.28a13.53,13.53,0,0,0,4.9.72c1.92.08,3.84.1,5.76.15,1.14,0,3-.19,4,.48,1.8,1.19.25,5.16.13,6.83-.22,3,.23,6.18-.29,9.17a6.72,6.72,0,0,1-1.52,3.39,3.63,3.63,0,0,0-1.07,4,24.12,24.12,0,0,0,3.42,7.12,23.87,23.87,0,0,0,12.08,9.91c2.51.84,5.56,1.45,8.15.68,3.35-1,6.36-3.46,9.16-5.46s5.35-3.89,8.07-5.77a13.38,13.38,0,0,0,4.74-5.48,16.24,16.24,0,0,0,1.19-7.55c-.2-3.58-.44-7.11-.38-10.7s.07-7.47.39-11.16c.17-2,.82-3.33,3-3.17,2.52.19,3.43,1.84,3.42,4.22,0,3.71-.37,7.44-.55,11.15s-.35,7.54-.54,11.31c-.15,3,.27,6.7-1.58,9.27-3.76,5.23-9.66,9.92-11.51,16.32a5.34,5.34,0,0,0,1.65,6c2,1.54,4.78,1.13,7,2.38,1,.58,1.43,1.69,2.32,2.3,1.18.82,2.83.26,4.09,0,3.65-.78,7.29-1.61,10.92-2.44,3.34-.77,6.64-2,10.06-1.85-.19,1.44.14,2.46-1.17,3.37a12.27,12.27,0,0,1-5,1.68c-3.85.7-7.74,1.17-11.57,2-1.85.41-3.64.94-5.45,1.53a7.13,7.13,0,0,1-4,.43,6.33,6.33,0,0,1-2.9-1.88,40.37,40.37,0,0,0-3.72-3.19Zm-135-7.59c.82-.4.54-.16.74-1.08a11.24,11.24,0,0,0,0-2.17V112.4a6.45,6.45,0,0,0,0-1.81c-.24-.6-.62-.6-1.33-.85q-2.3-.83-4.65-1.47a49.88,49.88,0,0,0-15.33-1.78,45.49,45.49,0,0,0-7.36,1c-1.13.25-2.25.54-3.35.86-1.3.39-3.23.73-4.31,1.57-1.61,1.26-1.22,4-1.23,5.71l0,8.62q0,9.33,0,18.67c0,5.91-.18,11.85.25,17.75,7.63-2.26,13.09,3.05,18.21,7.88C120.21,174.39,126.28,180.45,132.39,186.46Zm35.5,6.92c0-5.46,0-10.93,0-16.39,0-2,.47-4.69-.47-6.49s-4.21-2.08-6.06-2.51a32.32,32.32,0,0,0-14.67-.27c-1.67.39-4.24.84-5.56,2s-.73,5.09-.75,6.82q-.13,16.23-.36,32.47c0,2.11-.45,4.59,0,6.66s2.76,1.63,4.39,1.65c5.22.08,10.44.18,15.66.34,1.65.05,3.33.2,5,.17a3.37,3.37,0,0,0,2.09-.46c1.41-1.12.8-4,.79-5.5C167.84,205.74,167.89,199.56,167.89,193.38Zm-26-56.09c.48,0,.15,16.7.24,18.48.07,1.41.21,2.81,1.8,3.11a12.24,12.24,0,0,0,2.77-.07,48.66,48.66,0,0,1,5,0c3.27.12,6.51.42,9.77.64,3,.21,5.25.57,6.16-2.77.81-3,.46-6.29.48-9.33q0-4.83.06-9.66,0-9.08,0-18.15c0-1.91.38-4.87-1.86-5.66a13.17,13.17,0,0,0-4-.37c-1.28,0-4.07-.59-4.62,1-.32,1,.42,1.94.19,2.91a2.43,2.43,0,0,1-1.89,1.71,1.85,1.85,0,0,1-2.32-.79c-.47-.91.06-2-.33-2.89s-1.41-1-2.37-1.17a32.32,32.32,0,0,0-4.37-.7,3.24,3.24,0,0,0-3.57,2.57c-.83,3.12-.54,6.8-.68,10C142.2,129.88,142.07,133.59,141.91,137.29Zm80,19.43c1.24-.58,2.95-1.14,3.56-2.48.74-1.65.15-3.89.18-5.61,0-2.16.68-4.33-1.89-5.28a23,23,0,0,0-4.39-.75l-5.69-.83c-3.43-.49-6.88-.94-10.33-1.33-2-.23-4.19-.16-4,2.47.27,3.22,1.74,6.68,2.64,9.78s1.5,6.33,2.94,9.09a9.11,9.11,0,0,0,6,4.59c3.59.92,7.29,1.43,10.92,2.12Zm-134.09,63c-.59,3-.13,6.12.05,9.21q.31,5.22.64,10.44c.21,3.38.2,6.87.7,10.22.24,1.57.78,3.23,2.43,3.77,1.88.61,4.41-.19,6.11-1a24.18,24.18,0,0,0,6-4.65c.86-.82,1.73-1.64,2.65-2.39s2.32-1.29,2.61-2.42-.64-2.24-1.37-3c-1.29-1.41-2.6-2.8-3.9-4.2l-8-8.7c-1.29-1.4-2.58-2.81-3.88-4.21A18.06,18.06,0,0,0,87.85,219.75Zm-7,16.72c.42,0,.25-6.69.24-7.56,0-1.31,0-2.64,0-4a9.1,9.1,0,0,0-1.2-3.52,7.41,7.41,0,0,0-2.6,2.1c-.92,1.38-1.8,2.79-2.7,4.19q-2.7,4.18-5.36,8.4c-.89,1.4-1.77,2.81-2.66,4.22a19.92,19.92,0,0,0-2.26,3.81,4.57,4.57,0,0,0,1.91,5.21c2.32,1.44,5.66,2.12,8.29,2.79,1.45.37,4.14,1.37,5.47.13s.91-4.37.92-6C80.84,243,80.82,239.75,80.82,236.47Zm161.65-2.28-17,21.19-2.37-3.1c1.28-.09,2.54-1.24,3.47-2a43.71,43.71,0,0,0,4.63-4.6c2.63-3,5.71-6.48,6.93-10.33L220.3,252.66l5.08,4.41c.9.79,1.24,1.54,2.38,1a3.84,3.84,0,0,1,2.1-.71,8.91,8.91,0,0,1,2.74,1.55,32,32,0,0,0,3,1.72c1.34.64,4.22,1.85,5.42.51s1-3.75,1.05-5.24c.15-2.63.28-5.25.4-7.88C242.69,243.39,243.18,238.77,242.47,234.19Zm8.21-2.35c-2.64.74-1.65,4.39-1.53,6.39.2,3.5.37,7,.58,10.49.17,2.83-.15,6.54,1.19,9.12,1,2,4.38,2.22,6.29,1.56,1.51-.53,2.51-1.78,3.65-2.84s2.38-2.11,3.58-3.15c1-.9,2.51-1.92,2.34-3.49-.15-1.35-1.4-2.39-2.26-3.31q-3.6-3.88-7.13-7.84C255.24,236.39,253.22,233.79,250.68,231.84ZM91.52,213.47c-.34,1.08-.56,1,.18,1.73a8.82,8.82,0,0,0,1.49,1l3.28,2.12,6.59,4.24,13.27,8.55a27.85,27.85,0,0,0,4-10.23c.24-1.39.83-3.55.22-4.89s-2.31-1.36-3.61-1.44C108.48,214,100.05,213.47,91.52,213.47Zm181.42,28.27c.65-2.8,1.33-5.59,2-8.39.32-1.43.63-2.86.92-4.29.19-.94.54-1.81.06-2.68-1.16-2.1-4.06-1.78-6.07-1.69-3.09.14-6.17.39-9.25.62l-4.52.33c-1,.07-3.88-.24-3.8,1,.05.77,2.2,1.9,3,2.44l3.34,2.38ZM73,217.67a4.09,4.09,0,0,0-.46-.91c-.51-.53-.45-.41-1.24-.25l-3,.59-6.09,1.2-12.38,2.44,5.31,16.53Zm165,13c-5.39-.69-11.24.73-16.61,1.45-1.89.25-5.55,0-5.28,2.74a14.54,14.54,0,0,0,1.26,3.56c.55,1.42,1.11,2.84,1.69,4.24.41,1,1.25,4.55,2.72,4.54.67,0,1.46-1.07,1.85-1.47,1-1.05,2-2.12,3.07-3.17C230.44,238.68,235,235.06,238,230.62Zm-1-11.34c.37-.89.39-.81,0-1.53a9.33,9.33,0,0,0-1.48-1.67c-.93-1-1.86-2.05-2.76-3.1-1.46-1.69-2.75-4.22-4.76-5.29-2.84-1.53-8.19,0-10.37,2.21a7.64,7.64,0,0,0-2.19,4.9c0,2.52,2.85,2.26,4.68,2.49Q228.53,218.37,237,219.28Zm37.42-6.08a22.66,22.66,0,0,0-1.27-2.94c-.54-.79-1.38-.93-2.27-1.24-2.32-.78-4.68-1.44-7-2.09-1-.27-1.71-.7-2.57-.21a18.83,18.83,0,0,0-2.55,2.28,40.12,40.12,0,0,0-5,4.84c-.67.83-1.24,1.73-1.83,2.62-.33.47-.86.85-.48,1.27s1.06.05,1.56-.06l6.86-1.43ZM50,204.17c1.47-1.29,2-3.38,4.36-3,2.77.44,5.61,2.08,8.27,3,1.42.48,2.84,1,4.27,1.41,1.28.42,2.94,1.34,4.27,1.41.5.41.78.34.85-.21.36-.42.22-.68-.41-.8a9.55,9.55,0,0,0-1.81-1.11l-4.23-2.59-8.15-5c-.51-.31-3.67-1.75-2.3-2.42.76-.37,2.75.49,3.53.78,4.56,1.69,8,5.47,12.7,6.91-3.38-4.4-7.15-11.62-13.85-9.86C52.9,193.88,48.58,199.28,50,204.17Zm31.42-21.68c.31-3.1.6-6.21,1-9.31.17-1.55.59-3.68-1.47-3.94-2.52-.32-5.84.87-8.23,1.6S70,173,70.73,175.1c.61,1.65,1.23,3.29,1.78,5a5.21,5.21,0,0,0,1.15,2.37,3.62,3.62,0,0,0,2.41.57C77.72,183,79.94,183.18,81.41,182.49ZM84,183.9c1.84.62,3.66,1.34,5.48,1.94a2.22,2.22,0,0,0,3-1.06c.75-1.66.52-4.14.52-5.92,0-2,.14-4.45-.65-6.33-.9-2.17-5.27-4.85-7-2.08-1,1.55-.66,4.57-.8,6.38C84.31,179.18,84.14,181.54,84,183.9ZM58.78,245.81a89.55,89.55,0,0,0,16-23.69c-2.53.79-4.49,3.64-6.29,5.46l-6.18,6.26C59,237.18,53.61,241.51,58.78,245.81Zm34.34-27.05c-.49.68,1.52,2.34,2.1,3l2.84,3.12,5.45,6q2.73,3,5.47,6c.61.67,1.42,1.94,2.4,2.17s1.35-.47,2-1.28c1.4-1.77,2.14-3.18.4-4.95s-4.33-3.06-6.39-4.44C102.64,225.1,97.87,221.94,93.12,218.76Zm158.72,1.67c.09,1.34.84,1.26,2.09,1.28l3.93.06,7.49.11,7.5.08c.74,0,2.14.22,2.61-.59a6.74,6.74,0,0,0,.05-2.8c-.41-4.61-6.28-2.36-9.17-1.68C261.5,218,256.67,219.25,251.84,220.43ZM71.24,182.22c-.64-2-1.2-4-1.91-5.9-.39-1.07-1-2.61-2.49-2.27-.75.17-1.91,1.39-2.5,1.86q-1.19.94-2.34,1.92c-1.34,1.14-3.16,2.09-2.76,4.08,1.19,5.91,9.36,7.7,13.87,4.77a35.6,35.6,0,0,0-3.9-1.29c-1.41-.3-3-.29-4.22-1.19a4.43,4.43,0,0,1-1.72-3.2c0-1.33,1.66-2,2.51-2.83a9.28,9.28,0,0,1,1.09,4.57Zm175.63,52.45c-.91,0-.63,0-1,.64a7.64,7.64,0,0,0-.32,1.94c-.18,1.36-.27,2.75-.39,4.12-.25,2.78-.5,5.56-.69,8.34a65,65,0,0,0-.19,8.37c.07,1.24-.07,3.89,1.41,4.47a3,3,0,0,0,1.86-.18c.62-.19.91-.22,1.08-.75a7.57,7.57,0,0,0-.14-2.05c-.14-2.74-.15-5.49-.17-8.23C248.34,245.76,248.25,240.11,246.87,234.67ZM93.06,204.77c.45.58,2.38.28,3.12.28h3.26c2.3,0,4.6,0,6.89,0s3.28.08,4.86-1.52c1.15-1.16,2.92-2.74,3.29-4.4.91-4.18-7.14-.05-8.52.49C101.65,201.31,97.36,203.05,93.06,204.77Zm82.75-92.42c-1.07,0-.75.45-.75,1.45v77.14c1.07,0,.75-.45.75-1.45V112.35ZM85,222.47c-1,4.8-.66,10-.8,14.94-.08,2.66-.16,5.31-.23,8,0,1.45-.12,2.9-.1,4.35,0,1.29.52,1.78,1.12,2.87.61-1.16,1.2-1.83,1.22-3.19s0-2.63,0-3.95c0-2.75-.09-5.51-.15-8.26s-.11-5.27-.17-7.9C85.76,226.87,85.91,224.71,85,222.47ZM71.5,209.76c-4.62-1.75-9.36-3.06-14-4.68-3.71-1.29-8.11.36-8.72,4.68Zm191-22.09L265.71,177c-4.64,3.72-11,4.13-15.65,7.85,2.17.52,4.14,1.77,6.42,1.29C259,185.64,260.33,186.55,262.53,187.67ZM68.92,214.75c0-.2,0-1-.14-1.12a7.14,7.14,0,0,0-1.75-.2c-.94-.12-1.87-.24-2.81-.34-2.14-.21-4.29-.24-6.44-.26s-4.1,0-6.15,0c-1.55,0-3.05-.15-3.12,1.71-.06,1.62.31,2.59,2,2.68a29.22,29.22,0,0,0,5.66-.58C60.41,216.05,64.67,215.39,68.92,214.75ZM190.31,111.63c-.86-.25-2.76-1.1-3.66-.53s-.58,1.78-.56,2.53a13.27,13.27,0,0,1-.12,3.21,30.44,30.44,0,0,0-.84,3.76c-.11,1.29-.2,3.44,1,4.19a7.3,7.3,0,0,0,6,.32c.64-.29.92-.38.89-1,0-.32-.46-.83-.61-1.09-.41-.66-.88-1.28-1.34-1.92C188.83,118,187.77,115,190.31,111.63ZM247.7,215.36c.88.5,1,0,1.67-.64l1.56-1.51,3.64-3.5c1.12-1.08,2.79-2.23,3.64-3.51.26-.4.9-.93.29-1.5-.28-.26-1.94,0-2.35-.06-1.46,0-2.91-.07-4.37-.09-1.2,0-2.29-.36-2.84.88s-.47,3.56-.64,5ZM137.38,107.27c-.9,0-.58.66-.58,1.48v59.3c0,.76-.38,1.44.58,1.45ZM256.8,232.77c-.84.89-.55.86.31,1.7l1.48,1.46,3.71,3.65q3.6,3.55,7.21,7.1c.73-1.12,2-2,1.33-3.5s-2.9-3-4.21-4.1A45,45,0,0,0,256.8,232.77Zm-84.19-56.41c.81,0,.43-2.47.43-3.24V113.91c-.8,0-.43,2.47-.43,3.24v59.21Zm-96.3,25.77c.75-.3.83-.35.81-1.21a7.94,7.94,0,0,0-.46-2.15c-.4-1.3-.8-2.59-1.24-3.87-1-2.91-1.85-4.44-5.16-4.29-.9,0-3.33-.21-3.2,1.15,0,.44,1.3,1.45,1.62,1.81l1.62,1.82Zm6.47,2.65a6.29,6.29,0,0,0-6.43,7.06c.42,3.11,2.29,6.26,5.77,6.27C89.17,218.15,90.6,204.81,82.78,204.78Zm-30,33.62c-5-7.29-5.42-16.13-7.2-24.81C41.94,217.46,47.58,236.3,52.81,238.4Zm41.79-44c-4.21-.94-6.64,1.92-6.42,6,3-2.43,7.15-4.8,9.19-8.12A5.39,5.39,0,0,0,98.1,188c-.58-1.95-1.78-2.2-3.45-2.93-.08,2.17-.25,3.35,1.13,5.17.11.15.72.73.7.91-.11.95-.65.38-1.11.33a18.15,18.15,0,0,1-3.11-.92Zm11.45,2.16-3.21-2.29c-.3-.21-1-.93-1.33-.95-.53,0-.91.58-1.37,1.06l-6,6.3a14.1,14.1,0,0,0-1.48,1.54c.13.57,1.26-.2,1.48-.3l3.74-1.68Zm18.18,18c3.53-10.43-3.58-31-9.55-33.52C122.29,190.93,124,202.54,124.23,214.6Zm90.3,12.65c.19,1.1.53,2.58,1.66,3.09,1.33.59,3.4-.28,4.72-.54,2-.41,4.07-.8,6.1-1.2a22.16,22.16,0,0,0,5.43-1.35Zm.61-3.29,18.24-.93a129,129,0,0,0-15.11-2.86c-.81-.12-2.21-.53-2.88.18S215.08,223.07,215.14,224Zm15.1-18.56,9.41,10.15c-.57-1.54-1.16-3.08-1.72-4.62a47.5,47.5,0,0,0-1.7-4.87C234.87,203.37,232.42,204.06,230.24,205.4Zm-11.36,43.32c-2-6.79-4.16-13.94-6.38-21.35C210.51,232.22,214.54,244.64,218.88,248.72Zm25-56.31,9.13-.6,2.08-.14c.84-.06,1.34.21,1.39-.68s-.62-.71-1.36-.86l-2.39-.52c-2.23-.48-5.41-1.63-7.69-1.08C243.18,189,243.5,191,243.83,192.41Zm-133,18.12c.52-1.05.64-1.05-.32-1.74a5.49,5.49,0,0,0-1.3-.82c-1.3-.44-3.24-.19-4.6-.21-3,0-6.27-.32-9.13.57-.36.11-2.24.36-1.45,1.1a10.2,10.2,0,0,0,2.1.14l4.9.32Zm132.91,20.61c6.85-.11,7.58-10.36,1.08-11.81-2.8-.63-5.24,2.34-5.78,4.8C238.46,226.9,240.54,231.19,243.77,231.14Zm18.59-27.53,4.65,1.58c.85.29,2.87,1.43,3.74,1.27,1.59-.3-.38-2.36-.91-3.15L267,199.08Zm-183-2.2c1.06-.14,1.05.05,1.25-.85a10.59,10.59,0,0,0,0-2c0-1.35,0-2.71,0-4.06s.15-3.3-1.3-3.94a3.09,3.09,0,0,0-1.88,0c-.88.18-.82.07-.73.93a14.4,14.4,0,0,0,.53,2Zm29.09,48.23c7.54-5.76,11.74-13.8,13.82-23.26A67.5,67.5,0,0,1,108.41,249.64Zm133.22-57.71c-.59-.9-1-2.38-2-2.91a4.59,4.59,0,0,0-2.72-.07,10,10,0,0,0-5.64,3Zm3.14,22.89c.71,0,.77.14,1.07-.33a5.58,5.58,0,0,0,.27-1.68c.18-1.12.37-2.24.53-3.37.3-2,1-4-.61-5.46-.74-.67-1.57-1.08-1.94.19-.26.9.16,2.49.22,3.44C244.46,210,244.62,212.42,244.77,214.82ZM140.47,131.6l.9.08v-19.5a5.69,5.69,0,0,0-.72,2.63c-.24,1.62-.36,3.25-.45,4.88A68.69,68.69,0,0,0,140.47,131.6Zm99.75,80.73c.65-.13.81,0,1.06-.53a5.83,5.83,0,0,0,.18-1.59c.12-1.05.25-2.11.27-3.18a3.23,3.23,0,0,0-.48-2.16c-.25-.33-1.31-1.41-1.76-1.41-1.52,0-1.4,1.72-1.17,2.58C238.89,208.16,239.58,210.23,240.22,212.33ZM88.6,192.49l-4.27-1.09L84.07,196c0,.88-.73,4,.52,3.92.69-.07,1.54-2.54,1.9-3.26Zm46.78,26.35q.48-10.83,1-21.65l-.9,0C135.3,204.38,134.06,211.65,135.38,218.84ZM56.63,185.12l-2.1,3.54c-.36.61-1.83,2.45-1.3,2.92.77.69,5.88-2.12,6.89-2.54Zm225,44.66c-2.09,6.49-4.25,13.16-6.26,19.39A38.21,38.21,0,0,0,281.64,229.78ZM229,262.17c-.27.9.35.77,1.16,1.06l1.34.46,3.68,1.29a28.46,28.46,0,0,1,6,2.65c.24-.56.49-1.12.73-1.69Zm39.13-6.94-9,6.9C263.57,261,263.81,260.85,268.1,255.23Zm-221.8-60,.94.67q1.63-3,3.26-6.06L52.05,187a10.45,10.45,0,0,0,.68-1.28c.34-.87.4-.6-.31-1.06Zm142.27-87.34.81.61c.57-.9,1.91-2.06,1.72-3.25-.14-.84-1.17-1.92-2-1.81C186.55,103.81,189.37,106.73,188.57,107.92Zm-16.28,98.4c.82-.19.37-5.38.37-6.41v-3.16c0-.65.26-3.16-.37-3.17Zm-31.24-45.08c-.18-3.86-.37-7.74-.56-11.61C139.1,155.19,139.73,160.6,141.05,161.24Zm77.3,45.12,7.52-2.88C221.2,202.42,219.82,202.91,218.35,206.36ZM89.53,165c-.11.68-.2.53.2.9a5.83,5.83,0,0,0,1.68.56l3.35,1.13,6.71,2.25c.19-.67.27-.52-.11-.9s-1.23-.41-1.69-.56l-3.38-1.13Zm-15.06,20.5c.88,2.53,4,3,7.06,1.15Zm65.84-42.72h.36V136.1c0-.6.34-1.76-.36-1.79ZM53.54,247.22c.93-.91.76-.85-.09-1.81l-1.58-1.79-3.37-3.83c-.79.81-.45.84.25,1.68l1.53,1.83ZM88.41,190c.19-.95.23-.78-.39-1.34a4,4,0,0,0-1.21-.68,3.09,3.09,0,0,0-3.23.8Z"/><path class="cls-1" d="M215.64,359.28c-.19.48-.32,1.34-.58,1.38-6.33,1.12-12.67,2.16-19,3.21l-.38-.75c1.18-1.48,2.32-3,3.56-4.4a2.9,2.9,0,0,0,.52-3.54c-1.8-4-3.37-8.09-5-12.15l-7,11c-.7-.51-.65-.23-.28-1.08a11.93,11.93,0,0,1,1-1.51l2.08-3.32c1.17-1.86,3.26-4.26,3.48-6.54,0-.56.16-1.05-.72-1.14-.6-.05-.7.41-1.09,1l-2.4,3.48c-1.48,2.15-3,4.31-4.45,6.46L178.26,341c-2.22,4.81-4.16,9.9-3.7,15.29.47,5.63,4.8,8.81,7.92,13.77h-24l0-.87h21.61c-1.36-2.75-2.39-3.91-5-3.75-6.15.39-12.33.13-18.78.13.27-.46.37-.84.6-1,5.23-3.9,8.41-9.41,10.63-15.65.71-2,1.33-4,2-6a54.47,54.47,0,0,0,2-5.71c.68-3.34-3.43-3.78-5.78-4.5l3.62-7.24,4.76,4.34c1-3.41-2.89-4.13-3.18-7.09l4.57,3.34c1.58-4.16,3.21-8.31,4.73-12.49.65-1.76,1.62-3.28.71-5.06a25.45,25.45,0,0,0-3-4h12.37c.67,0,5.22-.4,5.48.06,0,.07-2.34,2.93-2.56,3.53-1.13,3,.36,6.13,1.45,8.92.8,2,1.48,4.11,2.2,6.17A15.28,15.28,0,0,0,198,326a7.08,7.08,0,0,0,1.51,1.43,5.85,5.85,0,0,0-.06-3.16l-1.17-3.58c-.76-2.27-1.55-4.53-2.42-6.76-.68-1.75-1.36-3.5-.32-5.26a10.42,10.42,0,0,1,4.13-3.8,8.46,8.46,0,0,1-1.47,2,6.22,6.22,0,0,0-1.5,2,6.74,6.74,0,0,0,.15,4.8c1.38,4.14,3,8.25,4.45,12.37l3.47-3q1.45,3.72,2.89,7.45c-1.65.46-5.16.69-6.25,2.18s1.06,4.85,1.64,6.3c2,5.1,4,10.25,6.35,15.2.94,2,3.63,2.92,5.52,4.34Zm-29.43-39.84c-.81-.21-.7,0-1,.8l-.48,1.28c-.35,1-.71,1.92-1.07,2.88a64.44,64.44,0,0,0-2.21,6.1c-.45,1.74.95,2.93,2,4.23,1.3,1.69,2.63,3.37,3.95,5,1.1-1.33,2.63-2.65,3.38-4.22s-.08-3.17-.6-4.73C188.87,327,187.53,323.23,186.21,319.44Zm-1.18-5c-1.15-.23-1.17-.37-1.6.76l-.75,2-1.62,4.33q-1.5,4-3,8c-.4,1.09-1.12,2.23-.58,3.39a20.58,20.58,0,0,0,2.71,3.51c.88,1.12,1.76,2.22,2.65,3.33.48.6,2,3.16,2.81,2.65.49-.31.17-2.33-.1-2.89a16.94,16.94,0,0,0-2.35-3.06c-1.37-1.69-3.39-3.61-3-6,.47-2.69,1.89-5.43,2.84-8,.48-1.28,1-2.57,1.39-3.89A26.09,26.09,0,0,0,185,314.47Zm-10.35,47.8c-.29-3.09-1.12-6.55-.8-9.88a44.31,44.31,0,0,1,2.31-9.34c.7-2.18,1.21-3.87-1.28-4.95C173.62,346.46,168.16,354.49,174.68,362.27Z"/><path class="cls-1" d="M126.41,37.88a29.85,29.85,0,0,0,3.32-1.33A11.32,11.32,0,0,0,132,34.6a6.55,6.55,0,0,0-3.4-.27c-1.23.29-2.42.72-3.63,1.07.29-1.79.38-3.83,2.26-4.61,1.17-.5,2.59-.32,3.72-.8.79-.34.54-.55.54-1.54V23c0-3.64.46-7.77-.33-11.36-.5-2.25-2.81-2.75-4.73-3.46C131.51,5.5,136.38,3,142,1.5a41.12,41.12,0,0,1,16.88-1c5,.81,10.78,2.64,14.11,6.76a9.49,9.49,0,0,1,.53,11.46c-1.6,2.27-4.15,3.73-6.57,5a52.61,52.61,0,0,1-8.33,3.65,77.64,77.64,0,0,0,19.64,26.08L163.9,59.47C162.43,54,161.17,48.38,159.27,43c-.93-2.64-2-5.24-3-7.85-.25-.66-.51-1.32-.76-2L155,31.81l-.67.18c-1.17,0-3,.78-4.09,1.08-2.12.58-4.54.71-4.92,3.25-.41,2.71,0,5.83.09,8.56s.3,4.54,2.25,6.47,4,3.53,6,5.28L140.61,57.8l-6,.54-2.63.23a5.13,5.13,0,0,1-1.64.15c-1.08-.42-.06-.71.66-.78l13.12-1.31,3.54-.35c.58-.06,2.48.1,2.84-.28.7-.75-.73-1.53-1.32-2a22.14,22.14,0,0,1-2.05-1.56c-2.4-2.28-2.93-5.34-2.73-8.51a42.14,42.14,0,0,0,0-5.73c-.08-1.3-.56-3.19.39-4.31s2.75-1,4-1.26c1-.21,5.74-.86,5.27-2.28a4.55,4.55,0,0,0-2-1.22,9.82,9.82,0,0,0-2.86.46c-2.17.42-4.32.9-6.47,1.37a6.25,6.25,0,0,0-1.24.26,9.82,9.82,0,0,0,0,2.1c0,1.15,0,2.3,0,3.45,0,2.38,0,4.75,0,7.13,0,2-.42,4.37,1,5.95a33,33,0,0,0,4.36,3.73l-11.49,1.2-5.5.57c-.6.07-2.13.53-2.47-.08s.72-1.11,1.24-1.49c2.37-1.76,3.82-3.36,3.89-6.47.08-3.46-.4-7.07-.57-10.53l-3,1-1.17.37C127,38.41,126.76,38.78,126.41,37.88Zm18.35-10.62c8-1.51,23.23-5.75,19.58-17-1.53-4.73-7-7-11.59-7.45a22.06,22.06,0,0,0-8.57,1c-2,.6-3.61,1.46-3.72,3.72-.09,1.67.2,3.4.19,5.08s0,3.35.09,5c.13,3.44.29,6.89.44,10.33a8.82,8.82,0,0,0,2.3-.58c.55-.35.37-.07.48-.81a9.21,9.21,0,0,0,0-1.39V13.77a38.12,38.12,0,0,1,0-5.95c.14-.78-.11-.5.57-.81a4.69,4.69,0,0,1,1.13-.19c.75-.13,1.5-.25,2.25-.35a29,29,0,0,1,4.46-.27,14.79,14.79,0,0,1,9.06,3.32,18.51,18.51,0,0,0-8.88-2.37c-2-.05-6-.47-7.4,1.46-.65.91-.35,2.78-.37,3.85,0,1.53,0,3.07,0,4.6C144.73,20.46,144.76,23.86,144.76,27.26Z"/><path class="cls-1" d="M116.56,56.93c-7.31,2.06-14.71,3.6-22.13,5.23l3.35-3.82a9.53,9.53,0,0,0,1.52-1.73c.48-.27.51-.59.09-1l-.59-1-5-8.75L86.53,56.23c-.71-.52-.14-.8.25-1.39L88,53c.67-1,1.24-2.15,1.92-3.18.93-1.38,2.59-2.46,3-4.16a2.89,2.89,0,0,0,0-1.37c-.45-.83-.87-.38-1.22,0a25.5,25.5,0,0,0-2.46,3.37L83.9,54.92,76.19,48.7c-1.94,4-4.58,9.74-3,14.29,1.15,3.32,4.91,4.37,7.28,6.58L57.68,78c-.25-.76-.14-.5.46-.87a11.37,11.37,0,0,1,1.66-.63l2.65-1,6-2.27,5.64-2.14,3-1.14c.47-.17.84-.21,1-.61.25-.68-.17-.6-.56-.77-1.53-.66-3.44,0-4.87.52l-5.5,2c-3.9,1.44-7.8,2.89-11.73,4.25,7.94-7.84,11.35-18.62,13.69-29.25l-6.6.34,1.73-4.5c.48-1.26.55-2.8,2.16-2.54,2.1.34,3.62,1.91,5.31-.4l-3.06-1.2c-1-.39-1.77-.33-1.6-1.46l3.37.52c.25,0,1.45.42,1.67.26a9.61,9.61,0,0,0,.6-2c.74-2.49,1.48-5,2.21-7.47l1-3.41c.29-1,1-2.39.67-3.44-.48-1.56-3-2.36-4.12-3.51L93,10.44c-1.54,2.69-4.47,5.29-2.92,8.51,1.07,2.25,2.5,4.38,3.74,6.54.69,1.21,1.39,2.42,2.12,3.61a7.12,7.12,0,0,0,2.56,2.38,8.47,8.47,0,0,0-.15-2.61,21.85,21.85,0,0,0-1.65-3c-1.06-1.92-2.14-3.82-3.28-5.7-.93-1.54-2.13-3-1-4.73s2.6-3.31,3.84-4.92c.84.68.3.95-.27,1.75s-1.09,1.5-1.57,2.28c-1.07,1.76-1,2.64-.08,4.43,2,3.67,4.13,7.28,6.21,10.91l3.63-3.43c1.23,2.09,2.45,4.19,3.67,6.28L100,35.92c2.42,4.5,4.66,9.09,7.23,13.51,1,1.69,2,3.93,3.65,5S114.77,55.84,116.56,56.93Zm-38-17L82,42.29c.93.65,2.24,2,3.31,2.29l.55.38.87-1.08,1-1.28a8.6,8.6,0,0,0,1.82-2.77c.42-1.7-1.92-4.44-2.76-5.89-1.37-2.35-2.76-4.69-4.14-7Q80.58,33.42,78.54,39.93Zm6.34,5.85-6.66-4.4-1.15-.76.21-.66a8.24,8.24,0,0,1,.62-2c.42-1.32.84-2.63,1.25-3.95.75-2.39,2.12-5.28,2.07-7.8,0-.7-.09-3.27-1.31-2.48-.59.38-1.14,3.68-1.35,4.34-.83,2.68-1.67,5.35-2.48,8-.57,1.9-2.13,4.65-.67,6.44a14.31,14.31,0,0,0,3.06,2.19c1.09.73,2.16,1.48,3.24,2.22C83.37,48.11,84.27,47.81,84.88,45.78ZM73.74,47.34c-.64.07-1,0-1.33.48a6.83,6.83,0,0,0-.36,1.73c-.21,1-.43,2.08-.65,3.11-.46,2.19-.9,4.39-1.26,6.6-.56,3.42.25,5.95,3.71,7.23-2.21-2.56-2.21-5.91-1.53-9,.38-1.77,1-3.5,1.45-5.24a10.34,10.34,0,0,0,.61-2.54A8.61,8.61,0,0,0,73.74,47.34Z"/><path class="cls-1" d="M271.06,23.83l-8.51,9.85c-.79-3.54-1.44-6.82-3.6-9.83a21.32,21.32,0,0,0-7.45-6.35c-5.54-2.89-12.7-3.48-17.83.61-5.4,4.3-6.4,12.48-6.23,18.92a25.48,25.48,0,0,0,6.27,16.68c5.94,6.49,14.59,8.42,22.64,11,.32-3.78.66-7.55,1-11.33q.22-2.67.42-5.34c.1-1.44.62-3.12-.5-4.25s-2.82-1.3-4.17-1.73l-5.15-1.6a47.76,47.76,0,0,1-10-4.24L248,39.55l4.69,1.54,2.68.88c.39.13,2.36,1.06,2.68.88,1.38-.75-1.06-2.05-1.62-2.3a42,42,0,0,0-4.54-1.43c-3.19-1-6.4-1.93-9.54-3.06-2.49-.9-5.1-2-5.71-4.79-.42-1.95,0-3.86,2.32-4.19,1.87-.28,4.84,1.66,5,3.65s-2.07,1.53-3.33,2l16.71,5.79,8.18,2.84,4.1,1.42,2,.71c1,.36,1.06.46,1.34,1.51-2.13-.17-4.42.19-5.62,2.15-1.06,1.72-1.09,4-1.22,5.92-.23,3.46-.71,6.91-.9,10.37s2.52,5.31,3.85,8.29C264,70,259,68.24,253.92,66.64c-4.9-1.55-9.94-2.82-14.77-4.57a33.39,33.39,0,0,1-17.52-14.36c-4.85-8.19-5.9-18.64-1.15-27.18,3.88-7,12.06-10,19.76-9.45,5.43.38,10.54,2.51,15.33,5C260.72,18.68,265.89,21.25,271.06,23.83Z"/><path class="cls-1" d="M267,298.52q-2.89,6.56-5.81,13.11c-1.63-3.75-3.25-7.56-7.45-9-3.53-1.2-7.8-.3-11.13,1.16-7.2,3.15-10.53,10.43-11,17.94-.52,7.85.3,19.2,7.28,24.35a14,14,0,0,0,9.61,2.4,29.63,29.63,0,0,0,6.52-1.41c1.89-.6,5.38-1.11,5.77-3.47.24-1.46-.32-3.47-.47-4.95-.17-1.65-.34-3.3-.52-5s-.35-3.32-.53-5c-.08-.71-.16-1.43-.23-2.14-.05-.42,0-2.65-.31-2.87-.62-.45-3.7.59-4.44.75-1.46.34-2.9.73-4.35,1.08a22.52,22.52,0,0,1-8.79.68,84,84,0,0,0,12.3-2.16c1.89-.54,4.33-1.25,5.47-3-2.79.57-5.57,1.13-8.36,1.68s-6.4,1.75-9.31,1.45c-5.31-.56-2.54-9.93,2.32-7.79,1.21.54,1.55,1.13,1.08,2.37a5.92,5.92,0,0,1-1,1.73c-.37.38-1.1.53-1.15,1-.14,1.12,3.2-.08,3.92-.25l4.78-1.09,19.57-4.47c-.51,1.32-1.76,2-2.57,3.16a8.84,8.84,0,0,0-1.36,3.49c-.46,2.77.27,5.51.63,8.24q.35,2.7.45,5.43a8.74,8.74,0,0,0,.52,3.33c.94,2.06,3.51,2.5,5.4,3.39-5.14,2-10.26,4-15.41,6-2.44.93-5,1.63-7.41,2.54a25.19,25.19,0,0,1-6.87,1.77c-7.64.62-14.15-4-17.85-10.44-7.54-13.06-3.53-31.88,9.59-39.76A27.46,27.46,0,0,1,248.19,299c3-.18,6,0,8.94-.1C260.43,298.82,263.73,298.66,267,298.52Z"/><path class="cls-1" d="M128.68,329.47a11.22,11.22,0,0,0-.45-3.61c-.54-1.39-1.25-2.74-1.87-4.1q-1.81-3.93-3.72-7.81c-.89-1.82-3-4.48-2.72-6.62.24-1.74,3-3.27,4.55-3.53-.68,1.48-2.71,2.34-2.94,4.08s1.48,4.29,2.22,5.88l4.15,8.82c.42.88,1.29,3.64,2.07,3.72.95.09,2.32-2.75,2.8-3.44,3.65-5.26,7.4-10.47,10.78-15.9a9.54,9.54,0,0,0,1.88-4.84c0-2.11-.93-4.27-1.61-6.22l19.48-6.79c-4.31,5-8.58,9.74-12.41,15.1-4,5.55-7.9,11.15-11.81,16.75l-5.64,8.13c-1.81,2.61-4.25,5.15-4.51,8.42s-.32,6.48-.43,9.72c-.11,3-.87,6.89,1,9.53a45.65,45.65,0,0,1,4.2,6.28l-19.94-2.85a50.24,50.24,0,0,0,4.44-4.37c1.73-2.18,1.93-4.52,2-7.21.06-2.5.46-4.89.64-7.37a26.66,26.66,0,0,0-3.11-13.86c-2.3-4.57-4.47-9.18-6.69-13.8-2.31-4.82-5.32-9.1-8.22-13.57L122,301.79c-1.54,1.41-4.17,3-4.72,5.12-.33,1.29.47,2.36,1,3.5q1,2.07,1.94,4.12,2,4.11,3.93,8.21l1.83,3.79c.3.63.6,1.26.91,1.89C127.45,329.61,127.38,329.7,128.68,329.47Z"/><path class="cls-1" d="M94.1,321.64c-.46,9.71-2,23.41-12,28.22-8.8,4.24-19-2.12-24.41-8.95-6.15-7.77-9.2-18.52-6.93-28.28a21.16,21.16,0,0,1,7.09-11.86c4-3.2,9.08-4.34,14.12-4.18,6.3.21,12.83,2.76,16.81,7.8S93.35,315.5,94.1,321.64Zm-8-3.63c-.71-.19-.62-5.84-.77-6.81a15.41,15.41,0,0,0-1.57-5,11.45,11.45,0,0,0-6.84-5.6,13.22,13.22,0,0,0-9.77.66c-3.44,1.78-5.25,5.09-6.54,8.59-3,8.09-3.92,18.57-.52,26.71,2.37,5.71,9.91,12.7,16.51,9.2,3.78-2,5.92-7,6.75-11C84.48,329.25,85.16,323.59,86.06,318Z"/><path class="cls-1" d="M327,73.89c-.91,5.35-1,11.71-5.25,15.72-3.7,3.52-8.7,2.94-13.2,1.55-10.36-3.21-19.45-11.74-24-21.49a33.71,33.71,0,0,1-3-16.86c.36-4.84,1.6-10,5.25-13.42C294,32.5,305,37.47,311.62,42.75A42.14,42.14,0,0,1,327,73.89ZM319.5,65.7c-.8-.2-.59,0-.78-.75a8,8,0,0,1,0-1.62c0-.87-.09-1.74-.18-2.6a25.5,25.5,0,0,0-1.3-5.72,21.73,21.73,0,0,0-5.88-8.83c-4.76-4.31-12.6-8.08-17-1.37-2.53,3.82-3.51,8.92-3.92,13.41a37.29,37.29,0,0,0,1,13.43,22.18,22.18,0,0,0,14.51,15,7.13,7.13,0,0,0,9.19-4.16C317.4,77.22,318.12,71.25,319.5,65.7Z"/><path class="cls-1" d="M25.42,90.64c-5.36,4-11,7.64-16.52,11.35.91-3.07,3.8-5.43,3.72-8.79a46.55,46.55,0,0,0-1-5.7c-.34-2.22-.61-4.45-1-6.67L5.15,85.47c.28-1.77,1.72-2.76,3-3.81A6.78,6.78,0,0,0,9.77,80a1.67,1.67,0,0,0-.27-2.56L2.89,84.13a14.83,14.83,0,0,1,4.5-7.22c.91-.81,2-1.45,2.19-2.74.26-1.53-.43-3.39-.68-4.9q-.45-2.77-.8-5.56a18.4,18.4,0,0,0-.65-4.57c-.87-2.2-3.26-1.59-5.2-1.8,7.14-5.61,14.61-10.69,22.27-15.58,4.79-3,14-8.19,18.71-2.17,4.18,5.31-.13,13.45-4,17.61-2.73,3-6.16,5.2-9.49,7.46-1.94,1.32-3.9,2.61-5.87,3.89-1.61,1-3.91,2-5.16,3.49s-.45,4-.15,5.79c.41,2.49.76,5,1,7.5.13,1.53,0,3.48,1.33,4.57a3.42,3.42,0,0,0,1.9.7A23.15,23.15,0,0,1,25.42,90.64ZM19.48,50.46c-1.55,5.6,1.14,11.32,1.11,16.95,4-2.88,8.45-5.51,11.62-9.42,2.73-3.36,5-8.81,2.31-12.89C32,41.23,27,43.7,23.89,45.33a58.81,58.81,0,0,0-6.65,4,4.27,4.27,0,0,0-2.13,2.8c-.33,2.16.45,4.74.74,6.85.48,3.43.89,6.85,1.65,10.22,3.78-1.23,1.75-6,1.39-8.85-.28-2.15-.62-4.3-.89-6.45C17.82,52.49,17.84,50.9,19.48,50.46Z"/><path class="cls-1" d="M319.73,283.87q-2.93,4.81-5.84,9.63c-4-5-9.25-3.38-14.52-1.75-1.75.54-3.81.62-5.48,1.33-1.12.47-1,1.35-.95,2.45.07,3.05.1,6.11.36,9.15a11,11,0,0,0,.28,2.64c.25.63,0,.84,1,.72,1.13-.15,1.42-.9,1.48-1.94.18-3.24-.86-6.65-.49-9.87.31-2.7,3.33-3,5.55-3.37-1.76,1-4,1.92-4.53,4.08-.69,3.08.15,6.86.35,10,5.44-.32,9.22-3.83,11.28-8.7,1.08.72.74,2.66.79,3.92l.22,4.85c0,.38.28,1.88.09,2.06-.49.45-.52,0-1.06-.16-1.44-.44-2.4-1.08-4-1.05-2.48,0-4.78,1.2-7.05,2.09-1,.38-2.48.57-3.07,1.56s-.13,2.68,0,3.81c.22,3.12.48,6.24.73,9.36.06.67-.12,3.81.34,4.15.67.49,2-.35,2.23-1,.44-1,0-2.55-.08-3.58-.12-1.38-.24-2.77-.35-4.16-.25-3.15-.78-6.08.4-9.06-.31,5.56.63,11.08,1,16.61,7.34-3.58,14.32-8.21,17.18-16.24l6.25,4.29a214.41,214.41,0,0,1-38.21,21c.95-1.33,2.27-2.44,3.11-3.83a7.93,7.93,0,0,0,1-4.58c-.09-1.84-.52-3.65-.71-5.48-.24-2.32-.38-4.65-.61-7l-5.75,3.61c-.44-.86.43-1,1.12-1.45l1.66-1.12,1.95-1.31c.62-.42,1.29-.45.82-1.27s-.71-.29-1.45.1l-1.76.94-4.19,2.25a8.46,8.46,0,0,1,4.76-5.53c2.73-1.32,2.55-2.66,2.27-5.56-.17-1.78-.26-3.56-.26-5.34a10.63,10.63,0,0,0-.26-3.69c-.77-2.15-3.59-2.78-5.45-3.72Z"/><path class="cls-1" d="M31.61,334.55,29,332.92c-.56-.35-2.16-1-1.87-1.62.61.29,2.36,1.5,2.82.9s-.59-1.24-1.05-1.73a21.64,21.64,0,0,0-4.66-3.39c-3.66-2.26-7.33-4.52-10.77-7.1l3.63-.63c-2.16-7.62-4.9-15-7.51-22.49C7.45,290.72,6,283.63,0,280c.61-.92,1.25-.34,2.22-.05l1.82.54,4.64,1.39,9.5,2.84-4.26,2c-.94.43-1,.37-.62,1.47l1,3.09,3.43,10.62,3.53,10.95,1.66,5.12c.11.37.48,2.07,1.23,1.39.26-.24.21-2,.23-2.32a15.31,15.31,0,0,0-1.16-5q-.82-2.68-1.68-5.37-1.63-5.19-3.31-10.38l-1.56-4.89a9.79,9.79,0,0,1-.74-2.28c0-.86-.52-.23.37-.88a7.7,7.7,0,0,1,1.39-.58,9,9,0,0,1,1.89-.78c.88.52-1.15,1.35-1.48,1.54a5.52,5.52,0,0,0-1.14.66,8.13,8.13,0,0,0,.43,1.34l.84,2.7L22,305.15l1.78,5.68c.55,1.78.86,4.31,2.2,5.63,1.26-2.94,3.28-5.53,5.06-8.18s3.66-5.48,5.45-8.25c2.91-4.52,6.25-9.68,2.22-14.65l17.73-2.32c-1.54,1.24-3.23,2.29-4.74,3.57a33.48,33.48,0,0,0-4.23,4.74c-3.1,3.87-6.08,7.83-9,11.83S32.94,311,30.35,315c-1.29,2-2.56,4-3.87,6-1.15,1.73-2.28,3.32-.25,4.91,5-7.67,9.9-15.41,15-23.05a76.16,76.16,0,0,1,7.33-9.63,64.45,64.45,0,0,1,10.23-8.39c.46.73.34.46-.11,1a8.45,8.45,0,0,1-1.54,1.12c-1,.74-2,1.51-3,2.33a50.23,50.23,0,0,0-5.32,5.3A107.3,107.3,0,0,0,39.66,307c-3,4.59-5.93,9.23-8.93,13.83-1.28,1.95-3.65,4.23-2.39,6.66.6,1.16,1.36,2.26,2,3.41l.95,1.74C31.73,333.44,32.33,333.81,31.61,334.55Z"/><path class="cls-1" d="M206.85,54.52c-.37.38-.57.9-1.09,1.09a8.65,8.65,0,0,1-2.6-.26l-5.24-.57c-3.66-.4-7.32-.82-11-1.23,1.49-1,3.22-1.88,4.63-2.94a4.81,4.81,0,0,0,1.67-4c.22-5,.18-10.06.3-15.08s.26-10,.43-15.07c.11-3.38,1.33-8.52-1.56-11.1-.57-.51-4.44-2.92-3.74-3.81.54-.68,6.08.48,7.16.6l7.48.84,3.56.39a7.47,7.47,0,0,1,1.78.2q1-.23.84.78l-.49.34c-1.33,1.55-3.52,2.05-4.74,3.85s-.85,5-.94,7.15c-.18,5-.33,10-.51,15-.19,5.53-.71,11.1-.74,16.63a7.31,7.31,0,0,0,1.54,4.88A19.49,19.49,0,0,0,206.85,54.52Z"/><path class="cls-1" d="M165.72,292c-1.09,2.36-3.88,4.33-5.63,6.3-1.91,2.17-3.72,4.43-5.47,6.73-3.45,4.55-6.64,9.28-9.91,14-3.14,4.49-7,8.73-9.46,13.63a32.08,32.08,0,0,0-3.33,15.44c.11,5.44.47,10.26,4.12,14.36a48.35,48.35,0,0,1,3.74,5.74,164.46,164.46,0,0,1-27.14-3.83l.07-.7,24,3.46.51-.69c-1.24-2.1-2.34-4.3-3.73-6.26a12.64,12.64,0,0,1-2.42-9,84.05,84.05,0,0,0,.36-9,16.6,16.6,0,0,1,1.21-7.21c1.14-2.54,3-4.74,4.66-7l5.66-7.87q5.43-7.59,10.88-15.17c1.79-2.48,3.52-5,5.43-7.43,1.77-2.22,3.92-4.09,5.87-6.15Z"/><path class="cls-1" d="M215.64,359.28l-.75-.66c-1.54-2.36-3.38-4.56-4.56-7.11-2.58-5.56-4.77-11.27-7.13-16.92l8-1.08q-1-2.49-2.12-5L208,326c-.4-.95-.78-1.13.18-1.61l5,10.56h-8.5c1.39,3.47,3,6.87,4.16,10.44,2.35,7.3,6.32,13,12.92,16.38a3.35,3.35,0,0,1,1.45,1.93l-24.32,4.54-.18-1.07,21.52-3.93.18-.86Z"/><path class="cls-1" d="M164.67,29.29a57.13,57.13,0,0,0,21.58,25.6L176,58.52l-4.93,1.75c-.84.29-4.39,2-4.8,1.29a84.61,84.61,0,0,1,9.35-4.26c2.91-1,5.9-1.71,8.89-2.47a62.83,62.83,0,0,1-21.33-26.07c4.7-2.07,10.19-4.11,13.33-8.45,2.79-3.85,1.81-8.45-.1-12.47,3.38,2.91,4,8.63,1.61,12.32-1.42,2.2-3.82,3.73-6,5.12A49.88,49.88,0,0,1,164.67,29.29Z"/><path class="cls-1" d="M116.56,56.93a15,15,0,0,1-4.17-3.09,24.81,24.81,0,0,1-2.9-4.85c-2.06-4.07-4.34-8-6.52-12l8.75-2.08-2.52-4.36L108,28.46c-.56-1-.89-1,0-1.7L114,35.83l-9.4,1.36c1.4,2.61,3,5.11,4.26,7.79a34.41,34.41,0,0,0,3.58,6.69c3,3.85,7.32,5.57,11.42,7.92L97.73,64.68c-.15-.78-.11-.52.52-.79a9.3,9.3,0,0,1,1.62-.33l2.91-.6,5.89-1.21L121,59.22Z"/><path class="cls-1" d="M207,54.62c-2.76-3.13-1.58-8.47-1.43-12.23.19-5,.36-10,.54-14.95s.25-9.74.51-14.59c.18-3.55,2.38-6,6-6.17-1.48,1.07-3.52,1.92-4.4,3.6-1,1.85-.7,4.24-.76,6.25-.15,5.34-.35,10.68-.55,16s-.45,10.67-.54,16c-.08,4.82,4.1,8.16,7,11.54l-12.3-1.48-5.63-.68-2.95-.35-1.64-.2c-.8-.1-1,.14-.92-.83l14,1.55c1,.11,6,1.2,6.49.44.33-.53-1.43-1.89-1.92-2.38L207.32,55Z"/><path class="cls-1" d="M92.5,304.47c6.8,7.74,6.78,19.74,4.78,29.31-1.86,8.94-7.07,19.19-16.92,21a16.67,16.67,0,0,1-13.65-3.82c5.43,1.9,10.81,4.28,16.52,1.88,5.36-2.25,9.2-7.69,11.38-12.89a42.3,42.3,0,0,0,2.82-17.11C97.32,316.26,96.07,310.06,92.5,304.47Z"/><path class="cls-1" d="M275.27,46.66c-.48.68-.48.76-1.21,1a11.06,11.06,0,0,0-1.66.62,4.55,4.55,0,0,0-1.9,2.29c-1,2.4-.65,5.44-1,8-.46,3.29-1.1,6.76.06,10s3.43,5.66,5.08,8.49l-19.87-6.63L245.1,67.2l-4.66-1.55-2.66-.89c-.94-.32-1.41-.15-1.11-1.17l35.84,11.87c-1.49-2.61-3.84-5.55-4.39-8.57a18.07,18.07,0,0,1,.18-4.64c.14-1.74.3-3.48.47-5.22s.35-3.48.53-5.21a7.06,7.06,0,0,1,.57-2.81C270.9,47.27,273.48,46.94,275.27,46.66Z"/><path class="cls-1" d="M242.7,355.4c5.79.78,11.12-2,16.37-4,6-2.24,11.92-4.63,17.65-7.42-1.79-1.74-4.1-2.54-5.31-4.91s-1.12-4.84-1.21-7.36c-.1-2.93-1.22-6-.88-8.93a9.25,9.25,0,0,1,4.13-6.24c-1.42,2.32-3.24,3.85-3.33,6.77s.68,6.2,1,9.24c.21,2.33,0,5.11,1.76,6.93a14.26,14.26,0,0,0,2.69,1.78c1.25.8,2.4,1.73,3.62,2.57-6.06,2.63-12.12,5.19-18.28,7.58-3.3,1.28-6.6,2.53-9.93,3.73a15.06,15.06,0,0,1-4.44,1.23,21.45,21.45,0,0,1-2.53-.14C243,356.18,242.71,356.43,242.7,355.4Z"/><path class="cls-1" d="M235.88,52.63c-5.44-7.54-6-20.32-1.93-28.57a11.14,11.14,0,0,1,11.56-6.5c4.38.49,9.52,2.62,11.72,6.68A31.71,31.71,0,0,0,251,20.16a18.31,18.31,0,0,0-7.21-1.84,9.54,9.54,0,0,0-8.55,4.84c-2.27,4-2.74,9.52-2.89,14A29.63,29.63,0,0,0,235.88,52.63Z"/><path class="cls-1" d="M303.64,91.49c7.57,2.2,17.28,6.63,23.06-1.38,2.6-3.61,3.19-8.31,3.3-12.65.13-5.36-1.28-10.07-2.5-15.21,2.39,3.77,3.19,8.53,3.33,12.92a29.81,29.81,0,0,1-2.38,13.65,12,12,0,0,1-11.09,7.07C312.88,95.91,307.07,94.56,303.64,91.49Z"/><path class="cls-1" d="M25.5,90.7c-2.42-.78-2.83-2.77-3-5-.26-3-.87-5.89-1.28-8.83-.17-1.2-.59-2.85.14-4,.84-1.26,2.95-1.74,4.26-2.23-1.59,1.15-3.36,2.06-3.66,4.24-.35,2.53.66,5.71,1,8.23.25,1.83.13,4.32,1.66,5.66a6.64,6.64,0,0,0,2.54,1.06c1.2.4,2.32,1,3.48,1.53-1,.62-1.42,1.27-2.42.87S26.08,90.94,25.5,90.7Z"/><path class="cls-1" d="M44.72,55.57c4.25-8.08,4.53-15.24-1.57-19.91C49.26,36.2,50.93,48.6,44.72,55.57Z"/><path class="cls-1" d="M235.86,316.92c-.47,8.35-.39,16.62,3.09,24.4C234.71,333.68,234.46,325.43,235.86,316.92Z"/><path class="cls-1" d="M273.51,26.63c-1.65,1.74-3.31,3.47-5,5.2l-2.23,2.34a8,8,0,0,0-1.24,1.29c-.38.68-.6.42.06,1.1q2.49-2.6,5-5.17l2.25-2.32a7.31,7.31,0,0,0,1.25-1.3C274,27.06,274.23,27.34,273.51,26.63Z"/><path class="cls-1" d="M238.59,310.72c3.71-6.64,11.81-9,17-4.93C248.85,303.21,243.19,304.86,238.59,310.72Z"/><path class="cls-1" d="M270,300.08q-3,6.44-6,12.87c-.79-.43-.73-.17-.47-1.07a11.66,11.66,0,0,1,.75-1.6l1.65-3.54q1.67-3.54,3.31-7.08Z"/><path class="cls-1" d="M311,309.21c0-1.19-.34-10.6.25-10.66C311.23,299.75,311.62,309.13,311,309.21Z"/><path class="cls-1" d="M319.45,310.92l4.06,1.5,1.88.69c.88.33,1,.22.7,1.12l-7-2.45Z"/><path class="cls-1" d="M294.85,335.61l-8,4.27c-.44-.91.85-1.11,1.61-1.51l1.85-1,4.34-2.29Z"/><path class="cls-1" d="M225.87,203.48l-7.52,2.88"/><path class="cls-1" d="M77.88,210.7c0-2.11,2.06-5.24,4.39-5.25s3.89,3.56,4.08,5.48c.25,2.47-1.72,5.54-4.38,5.7C79.15,216.81,77.88,212.93,77.88,210.7Z"/><path class="cls-1" d="M243.88,229.94c-5.27-.09-4.86-9.61.36-9.49C250,220.58,249.9,230.05,243.88,229.94Z"/><path class="cls-1" d="M65.67,306.42C64,311.91,61.9,317.24,61.58,323a39.25,39.25,0,0,0,.36,8.25c.22,1.33.52,2.64.84,4,.15.66.32,1.31.47,2,.22.91.88,1.85-.17,2.16-.67-2.89-1.63-5.71-2.08-8.65a40.32,40.32,0,0,1-.26-8.92C61.14,316.37,62.44,310.83,65.67,306.42Z"/><path class="cls-1" d="M65.67,306.42C69,300.26,78,300.7,82,305.86c-2.77-1.59-5.59-3.56-8.93-3.33S68.23,305,65.67,306.42Z"/><path class="cls-1" d="M309.89,47.24c-2.69-1.49-5.74-3.59-9-2.48s-4.48,5-5.38,8.05A37.16,37.16,0,0,0,294.81,72c.22,1,.47,2,.78,3a9.44,9.44,0,0,1,.58,1.64c.07.76.37.61-.5.93-1.32-4.65-2.74-8.78-2.73-13.69a39.58,39.58,0,0,1,2.26-13.16c1.06-3,2.85-6.11,6.17-6.91S307.77,44.91,309.89,47.24Z"/></g></g></svg>